<svg xmlns="http://www.w3.org/2000/svg" version="1.1" xmlns:xlink="http://www.w3.org/1999/xlink" xmlns:svgjs="http://svgjs.dev/svgjs" width="1000" height="810" viewBox="0 0 1000 810"><g transform="matrix(1,0,0,1,-0.16812853759370228,-1.1460638297870673)"><svg viewBox="0 0 174 141" data-background-color="#ffffff" preserveAspectRatio="xMidYMid meet" height="810" width="1000" xmlns="http://www.w3.org/2000/svg" xmlns:xlink="http://www.w3.org/1999/xlink"><g id="tight-bounds" transform="matrix(1,0,0,1,0.02925436554130556,0.19949999999997203)"><svg viewBox="0 0 173.9414912689174 140.60052000000002" height="140.60052000000002" width="173.9414912689174"><g><svg viewBox="0 0 173.9414912689174 140.60052000000002" height="140.60052000000002" width="173.9414912689174"><g><svg viewBox="0 0 173.9414912689174 140.60052000000002" height="140.60052000000002" width="173.9414912689174"><g><path d="M0 140.601v-140.601h173.941v140.601z" fill="#89939e" stroke="transparent" stroke-width="0" rx="0%" data-fill-palette-color="tertiary"></path><path d="M3.283 137.317v-134.034h167.375v134.034z" fill="#000000" stroke="transparent" stroke-width="0" rx="0%" data-fill-palette-color="quaternary"></path><path d="M9.85 130.751v-120.901h154.242v120.901z" fill="#89939e" stroke="transparent" stroke-width="0" data-fill-palette-color="tertiary"></path></g><g transform="matrix(1,0,0,1,19.699740000000013,19.69974)" id="textblocktransform"><svg viewBox="0 0 134.54201126891738 101.20104000000002" height="101.20104000000002" width="134.54201126891738" id="textblock"><g><svg viewBox="0 0 134.54201126891738 101.20104000000002" height="101.20104000000002" width="134.54201126891738"><g transform="matrix(1,0,0,1,0,0)"><svg width="134.54201126891738" viewBox="1.5 -42.95000076293945 57.099998474121094 42.95000076293945" height="101.20104000000002" data-palette-color="#000000"><path d="M9.8 0L1.5 0 1.5-42.95 9.8-42.95 9.8 0ZM20.45 0L12.1 0 16.25-42.95 30.8-42.95 34.9 0 26.75 0 26.15-6.95 20.95-6.95 20.45 0ZM23.2-35.65L21.6-13.8 25.5-13.8 23.6-35.65 23.2-35.65ZM45.9 0L37.5 0 37.5-42.95 46.35-42.95 50.3-22.4 50.3-42.95 58.6-42.95 58.6 0 50.2 0 45.9-21.5 45.9 0Z" opacity="1" transform="matrix(1,0,0,1,0,0)" fill="#000000" class="undefined-text-0" data-fill-palette-color="quaternary" id="text-0"></path></svg></g></svg></g></svg></g></svg></g><g></g></svg></g><defs></defs></svg><rect width="173.9414912689174" height="140.60052000000002" fill="none" stroke="none" visibility="hidden"></rect></g></svg></g></svg>