<svg xmlns="http://www.w3.org/2000/svg" xmlns:xlink="http://www.w3.org/1999/xlink" viewBox="0 0 1998.48 1615.41" enable-background="new 0 0 1998.48 1615.41"><style type="text/css">.st0{clip-path:url(#SVGID_00000086659952083390919170000004495228399328244143_);fill:#FFFFFF;} .st1{clip-path:url(#SVGID_00000086659952083390919170000004495228399328244143_);} .st2{clip-path:url(#SVGID_00000146478684356976858950000016767810780010870678_);}</style><defs><path id="SVGID_1_" d="M0 0h1998.48v1615.41h-1998.48z"/></defs><clipPath id="SVGID_00000073721509670667134310000010811468942303219104_"><use xlink:href="#SVGID_1_" overflow="visible"/></clipPath><path clip-path="url(#SVGID_00000073721509670667134310000010811468942303219104_)" fill="#fff" d="M0 0h1998.47v1615.41h-1998.47z"/><path clip-path="url(#SVGID_00000073721509670667134310000010811468942303219104_)" d="M37.72 37.72h1923.03v1539.96h-1923.03z"/><path clip-path="url(#SVGID_00000073721509670667134310000010811468942303219104_)" fill="#fff" d="M113.17 113.17h1772.15v1389.07h-1772.15z"/><defs><path id="SVGID_00000007396048241496676170000005243155149789396135_" d="M226.34 226.34h1545.8v1162.73h-1545.8z"/></defs><clipPath id="SVGID_00000122720678506026402290000016806389879247227278_"><use xlink:href="#SVGID_00000007396048241496676170000005243155149789396135_" overflow="visible"/></clipPath><path d="M1428.33 1389.07h-227.41v-1162.73h239.59l106.93 556.33v-556.33h224.7v1162.74h-227.41l-116.41-582.05v582.04zm-614.53-965.11l-43.32 591.52h105.58l-51.44-591.52h-10.82zm-74.45 965.11h-226.05l112.35-1162.73h393.9l110.99 1162.74h-220.64l-16.25-188.15h-140.77l-13.53 188.14zm-288.31 0h-224.7v-1162.73h224.7v1162.73z" clip-path="url(#SVGID_00000122720678506026402290000016806389879247227278_)"/></svg>